<?xml version="1.0" standalone="no"?>
<!DOCTYPE svg PUBLIC "-//W3C//DTD SVG 20010904//EN"
 "http://www.w3.org/TR/2001/REC-SVG-20010904/DTD/svg10.dtd">
<svg version="1.0" xmlns="http://www.w3.org/2000/svg"
 width="1479.000000pt" height="832.000000pt" viewBox="0 0 1479.000000 832.000000"
 preserveAspectRatio="xMidYMid meet">

<g transform="translate(0.000000,832.000000) scale(0.100000,-0.100000)"
fill="#000000" stroke="none">
<path d="M1850 5918 c0 -25 -1 -25 -107 -32 -98 -6 -281 -40 -343 -64 -17 -7
74 -11 295 -15 272 -4 333 -8 410 -25 229 -51 418 -151 586 -310 l69 -64 0
171 0 171 455 0 455 0 0 -1280 0 -1280 -455 0 -455 0 0 176 0 177 -80 -77
c-145 -138 -327 -239 -527 -293 -94 -26 -111 -27 -448 -32 l-350 -6 70 -22
c104 -32 211 -52 324 -59 99 -7 101 -7 101 -32 l0 -25 97 7 c214 15 455 92
631 201 l42 26 0 -90 0 -91 590 0 590 0 0 1415 0 1415 -590 0 -590 0 0 -80 c0
-44 -1 -80 -3 -80 -1 0 -59 28 -127 63 -186 94 -348 139 -543 153 l-97 7 0
-25z"/>
<path d="M4829 5867 c6 -14 4 -37 -5 -62 -122 -361 -309 -867 -331 -899 -16
-23 -45 -49 -66 -60 -34 -16 -38 -22 -35 -50 l3 -31 178 -3 177 -2 0 34 c0 30
-4 36 -34 46 -90 29 -104 85 -61 243 42 153 17 138 217 135 l173 -3 43 -125
c64 -184 60 -229 -18 -246 -47 -10 -50 -13 -50 -44 l0 -30 220 0 220 0 0 30
c0 24 -6 33 -27 41 -38 14 -71 46 -93 90 -11 20 -89 229 -175 465 -86 236
-163 444 -170 462 l-14 32 -80 0 c-80 0 -80 0 -72 -23z m177 -533 l6 -24 -141
0 c-78 0 -141 3 -141 8 0 5 113 331 136 392 5 12 121 -299 140 -376z"/>
<path d="M6614 5876 c-12 -31 0 -61 26 -64 41 -5 95 -32 110 -55 12 -18 16
-91 18 -409 3 -448 2 -459 -61 -488 -23 -10 -55 -22 -70 -25 -25 -5 -28 -10
-25 -38 2 -26 7 -32 26 -31 12 0 124 1 248 2 l225 2 -3 32 c-3 29 -7 33 -38
39 -43 7 -69 20 -95 49 -19 21 -20 39 -23 414 -2 265 0 403 8 429 8 28 20 42
50 57 22 11 51 20 65 20 23 0 25 4 25 40 l0 40 -240 0 c-199 0 -242 -2 -246
-14z"/>
<path d="M7250 5855 c0 -31 3 -35 25 -35 40 0 89 -25 108 -53 15 -24 17 -67
17 -432 0 -343 -2 -411 -15 -435 -17 -32 -51 -53 -102 -65 -29 -6 -33 -10 -33
-41 l0 -34 468 6 c257 4 470 9 473 13 3 3 18 56 33 116 15 61 29 117 32 126 3
12 -5 20 -27 28 -18 6 -33 11 -35 11 -1 0 -13 -19 -27 -43 -38 -64 -115 -131
-183 -158 -50 -20 -77 -23 -179 -24 -103 0 -125 3 -155 21 -64 37 -65 39 -68
454 -2 250 0 387 7 412 14 46 61 86 112 94 36 6 39 9 39 40 l0 34 -245 0 -245
0 0 -35z"/>
<path d="M8350 5850 c0 -36 2 -40 25 -40 41 0 92 -26 112 -56 17 -26 18 -58
18 -429 0 -369 -1 -403 -18 -428 -18 -28 -59 -51 -109 -62 -24 -5 -28 -10 -28
-41 0 -35 1 -36 31 -30 17 3 128 6 245 6 l214 0 0 35 c0 32 -3 35 -28 35 -37
0 -94 32 -109 61 -10 18 -13 126 -13 424 0 298 3 406 13 424 15 29 72 61 109
61 26 0 28 3 28 40 l0 40 -245 0 -245 0 0 -40z"/>
<path d="M9090 5855 c0 -27 4 -35 18 -35 35 0 80 -38 91 -77 12 -43 15 -25
-55 -432 -43 -254 -59 -326 -83 -377 -29 -61 -65 -94 -106 -94 -11 0 -15 -11
-15 -40 l0 -40 181 0 180 0 -3 37 c-3 32 -7 38 -34 45 -16 4 -41 19 -55 34
-22 24 -24 33 -24 137 0 86 9 164 39 332 21 121 42 223 46 228 9 10 227 -588
252 -693 12 -47 22 -91 24 -97 2 -8 20 -13 43 -13 39 0 39 0 50 51 6 29 65
195 131 369 141 376 151 402 156 397 10 -10 94 -624 88 -651 -9 -53 -43 -82
-109 -96 -26 -5 -30 -10 -30 -40 l0 -35 230 0 230 0 3 30 c3 28 -1 32 -47 52
-76 32 -81 47 -140 438 -68 454 -67 445 -47 483 13 25 27 35 61 44 42 11 45
15 45 45 l0 33 -154 0 -153 0 -5 -72 c-4 -62 -22 -119 -123 -388 -65 -173
-121 -319 -125 -323 -4 -4 -53 117 -110 270 -122 327 -139 380 -148 453 l-7
55 -148 3 -147 3 0 -36z"/>
<path d="M5480 5765 c-7 -63 -14 -118 -14 -122 -1 -5 14 -9 32 -11 27 -3 34 1
42 23 6 15 24 47 41 72 49 70 102 88 257 84 l63 -1 -3 -442 c-2 -345 -6 -449
-16 -469 -17 -31 -55 -55 -104 -64 -35 -7 -38 -10 -38 -41 l0 -34 245 0 245 0
0 35 c0 31 -3 35 -34 40 -56 11 -94 40 -105 82 -7 24 -11 196 -11 466 l0 427
93 0 c67 0 103 -5 132 -19 42 -19 99 -75 131 -129 15 -26 25 -32 51 -32 39 0
39 0 15 145 l-18 100 -496 3 -496 2 -12 -115z"/>
<path d="M1037 5649 c-42 -27 -77 -52 -77 -55 0 -2 200 -4 445 -4 l445 0 0 55
0 55 -368 0 -368 0 -77 -51z"/>
<path d="M780 5435 l-54 -55 562 0 562 0 0 55 0 55 -508 0 -508 0 -54 -55z"/>
<path d="M626 5245 c-9 -14 -23 -36 -32 -50 l-16 -25 636 0 636 0 0 50 0 50
-604 0 -604 0 -16 -25z"/>
<path d="M500 5014 c-11 -25 -20 -50 -20 -55 0 -5 204 -9 502 -9 l502 0 -54
-50 -54 -50 -467 0 -467 0 -11 -44 c-6 -25 -11 -50 -11 -55 0 -8 137 -11 440
-11 242 0 440 -3 440 -6 0 -4 -8 -28 -17 -55 l-18 -49 -431 0 -431 0 -7 -31
c-3 -17 -6 -42 -6 -55 l0 -24 425 0 425 0 0 -50 0 -50 -425 0 -425 0 0 -32 c0
-18 3 -43 6 -55 l6 -23 432 0 431 0 18 -49 c9 -27 17 -51 17 -55 0 -3 -198 -6
-440 -6 -345 0 -440 -3 -440 -12 0 -7 5 -30 11 -50 l10 -38 462 0 462 0 60
-55 59 -55 -502 0 c-276 0 -502 -3 -502 -6 0 -4 8 -28 17 -55 l18 -49 695 0
c775 0 775 0 910 67 l75 38 -172 3 -173 2 0 55 0 55 235 0 235 0 30 42 c16 22
30 45 30 50 0 4 -119 8 -265 8 l-265 0 0 55 0 55 289 0 c165 0 292 4 295 9 4
5 9 30 12 55 l7 46 -302 0 -301 0 0 50 0 50 301 0 301 0 -6 38 c-15 79 16 72
-307 72 l-289 0 0 55 0 55 265 0 c155 0 265 4 265 9 0 5 -15 29 -33 53 l-33
43 -232 3 -232 2 0 50 0 50 173 2 172 3 -64 33 c-35 18 -97 42 -139 53 -71 18
-116 19 -774 19 l-699 0 -19 -46z"/>
<path d="M4397 4173 c-4 -3 -7 -19 -7 -35 0 -22 5 -28 22 -28 12 0 41 -9 65
-21 34 -16 45 -28 53 -57 5 -20 11 -183 13 -362 3 -299 5 -330 25 -390 53
-161 178 -228 410 -218 103 4 116 7 186 42 109 53 165 124 186 237 6 28 10
180 10 336 0 178 4 301 11 329 13 51 55 90 107 100 28 6 32 10 32 40 l0 34
-195 0 -195 0 0 -35 c0 -31 3 -35 26 -35 40 0 102 -39 116 -74 16 -41 24 -600
9 -683 -22 -120 -113 -192 -255 -201 -98 -6 -164 16 -222 73 -69 70 -74 99
-74 444 1 163 5 316 9 341 10 51 46 86 99 96 29 6 32 10 32 40 l0 34 -228 0
c-126 0 -232 -3 -235 -7z"/>
<path d="M5600 4147 c0 -31 4 -35 41 -46 26 -8 60 -31 90 -61 l49 -49 0 -373
c0 -344 -2 -376 -19 -415 -22 -47 -50 -69 -103 -78 -35 -7 -38 -10 -38 -41 l0
-34 200 0 200 0 0 34 c0 31 -2 34 -39 39 -60 8 -89 32 -106 91 -12 42 -15 109
-13 360 l3 308 244 -303 c135 -167 281 -352 325 -411 81 -108 81 -108 123
-108 l43 0 0 443 c0 243 5 460 10 481 13 58 40 89 98 111 48 18 52 23 52 53
l0 32 -200 0 -200 0 0 -34 c0 -31 2 -34 40 -39 23 -3 52 -13 66 -22 52 -34 55
-57 52 -410 l-3 -325 -328 415 -328 415 -130 0 -129 0 0 -33z"/>
<path d="M7440 4145 c0 -25 4 -35 15 -35 26 0 61 -29 91 -73 15 -23 112 -251
215 -507 l187 -465 39 -3 38 -3 99 263 c55 145 130 342 166 438 36 96 81 204
100 238 32 60 82 112 108 112 7 0 12 15 12 35 l0 35 -175 0 -175 0 0 -35 c0
-30 3 -35 24 -35 37 0 86 -20 96 -40 18 -33 11 -72 -34 -200 -45 -130 -192
-514 -206 -540 -7 -12 -11 -8 -20 15 -6 17 -70 177 -141 356 -71 180 -129 335
-129 345 0 36 37 64 84 64 23 0 26 4 26 35 l0 35 -210 0 -210 0 0 -35z"/>
<path d="M11028 4170 c-237 -40 -317 -329 -133 -483 24 -20 104 -77 179 -127
191 -128 226 -175 214 -285 -15 -125 -160 -185 -288 -117 -62 32 -120 107
-147 190 -15 46 -20 52 -45 52 l-28 0 0 -125 c0 -122 0 -125 25 -141 104 -68
327 -96 438 -54 125 47 196 137 205 259 10 141 -51 223 -263 355 -143 90 -222
150 -240 186 -19 37 -19 113 0 150 37 72 172 100 260 54 52 -27 101 -92 121
-160 14 -49 18 -54 45 -54 l29 0 0 110 0 110 -38 19 c-94 48 -245 75 -334 61z"/>
<path d="M11592 4144 c3 -35 6 -38 51 -49 27 -7 59 -22 70 -34 22 -21 22 -24
22 -445 0 -485 6 -454 -92 -482 -48 -14 -53 -18 -53 -45 l0 -29 245 0 245 0 0
35 c0 30 -3 35 -22 35 -36 1 -105 36 -120 62 -10 18 -14 110 -16 408 -3 333
-1 390 13 426 17 44 50 68 114 80 27 6 31 11 31 40 l0 34 -246 0 -245 0 3 -36z"/>
<path d="M12191 4088 c-6 -51 -14 -108 -17 -125 -6 -32 -5 -33 30 -33 30 0 38
5 52 33 59 115 117 144 287 139 l58 -2 -3 -454 -3 -454 -24 -25 c-13 -15 -44
-31 -72 -37 -45 -11 -49 -15 -49 -41 l0 -29 245 0 245 0 0 29 c0 26 -5 30 -44
40 -25 6 -58 22 -73 35 l-28 24 -3 456 -3 456 91 0 c130 0 181 -25 251 -127
26 -37 35 -43 64 -43 19 0 35 3 35 8 0 4 -9 59 -20 122 -11 63 -20 116 -20
118 0 1 -222 2 -494 2 l-493 0 -12 -92z"/>
<path d="M13327 4174 c-4 -4 -7 -20 -7 -35 0 -20 6 -28 24 -33 57 -14 117 -92
295 -384 l111 -182 0 -156 c0 -179 -9 -212 -63 -237 -19 -9 -47 -17 -61 -17
-23 0 -26 -4 -26 -35 l0 -35 241 0 240 0 -3 32 c-3 29 -7 33 -38 39 -94 15
-110 51 -110 254 l0 157 137 226 c152 250 193 303 259 328 40 15 44 20 44 51
l0 33 -197 -2 -198 -3 -3 -31 c-3 -29 -1 -32 36 -38 88 -14 114 -72 71 -159
-30 -62 -183 -317 -189 -317 -3 0 -22 30 -42 68 -21 37 -69 123 -108 192 -94
168 -94 206 6 218 44 5 45 6 42 36 l-3 31 -226 3 c-124 1 -228 -1 -232 -4z"/>
<path d="M6872 4138 c3 -29 7 -33 43 -40 22 -5 54 -19 70 -32 l30 -24 0 -426
c0 -423 0 -426 -22 -447 -11 -12 -43 -27 -70 -34 -43 -11 -48 -15 -51 -44 l-3
-31 245 0 246 0 0 34 c0 32 -2 34 -42 39 -54 7 -90 35 -106 83 -19 56 -13 787
7 825 13 26 59 52 114 63 22 5 27 12 27 36 l0 30 -246 0 -245 0 3 -32z"/>
<path d="M8590 4140 c0 -26 4 -30 28 -30 15 0 43 -8 62 -19 64 -33 65 -39 68
-416 4 -368 -4 -475 -36 -508 -11 -11 -42 -25 -69 -32 -43 -11 -48 -15 -51
-44 l-3 -31 439 0 439 0 32 126 c18 69 29 130 24 134 -4 4 -19 10 -33 13 -22
5 -29 1 -45 -30 -29 -54 -96 -118 -156 -150 -50 -26 -62 -28 -166 -28 -97 0
-115 3 -140 21 -56 41 -63 70 -63 277 l0 189 133 -4 c90 -2 141 -8 162 -18 35
-18 75 -74 75 -106 0 -21 5 -24 35 -24 l35 0 0 185 0 185 -35 0 c-29 0 -35 -4
-35 -21 0 -32 -35 -84 -67 -99 -18 -9 -77 -15 -165 -18 l-138 -4 0 195 c0 164
3 198 16 211 12 13 39 16 127 16 194 0 291 -36 337 -124 22 -41 29 -46 59 -46
32 0 33 1 27 31 -3 17 -6 69 -6 115 l0 84 -445 0 -445 0 0 -30z"/>
<path d="M9620 4141 c0 -25 4 -29 39 -35 22 -3 52 -16 66 -29 40 -34 47 -118
43 -510 -3 -300 -5 -346 -20 -373 -16 -30 -60 -58 -103 -66 -14 -2 -21 -12
-23 -36 l-3 -32 230 0 231 0 0 30 c0 25 -5 31 -38 39 -89 24 -104 68 -100 298
l3 168 30 -3 c17 -2 44 -14 61 -27 17 -13 123 -132 235 -265 l203 -240 108 0
108 0 0 29 c0 23 -7 33 -37 48 -25 13 -95 86 -200 209 -89 104 -180 205 -203
225 -44 41 -48 49 -22 49 33 0 141 59 181 99 91 91 93 255 4 345 -88 88 -176
106 -525 106 l-268 0 0 -29z m560 -67 c69 -38 100 -85 107 -163 5 -52 2 -68
-21 -114 -44 -90 -126 -131 -251 -125 l-70 3 0 203 c0 243 -3 236 111 229 53
-3 83 -11 124 -33z"/>
<path d="M583 3766 c3 -8 17 -33 32 -55 l25 -41 605 0 605 0 0 55 0 55 -636 0
c-546 0 -635 -2 -631 -14z"/>
<path d="M775 3510 l49 -50 513 0 513 0 0 50 0 50 -562 0 -562 0 49 -50z"/>
<path d="M960 3346 c0 -3 35 -28 77 -55 l77 -51 368 0 368 0 0 55 0 55 -445 0
c-245 0 -445 -2 -445 -4z"/>
<path d="M448 2782 c-63 -16 -80 -42 -28 -42 l30 0 0 -146 0 -146 -30 -11
c-16 -6 -30 -17 -30 -24 0 -10 26 -13 105 -13 87 0 105 3 105 15 0 9 -9 15
-25 15 -14 0 -29 8 -35 19 -6 11 -10 90 -10 185 0 127 -3 166 -12 165 -7 -1
-39 -8 -70 -17z"/>
<path d="M1481 2775 c-57 -49 -65 -142 -16 -191 18 -18 35 -24 70 -24 27 0 45
-5 45 -12 0 -20 -50 -78 -91 -105 -67 -44 -21 -54 61 -12 132 66 180 250 90
341 -39 39 -114 40 -159 3z m103 -20 c49 -50 12 -183 -41 -149 -25 16 -31 125
-8 148 20 20 29 20 49 1z"/>
<path d="M2545 2791 c-51 -22 -81 -94 -63 -157 14 -53 40 -74 93 -74 33 0 45
-4 45 -15 0 -20 -54 -80 -96 -105 -39 -24 -36 -43 4 -34 109 27 202 137 202
240 0 91 -51 154 -123 153 -23 0 -51 -4 -62 -8z m79 -34 c23 -17 31 -93 14
-127 -17 -31 -48 -38 -65 -14 -19 26 -17 113 4 136 19 22 24 22 47 5z"/>
<path d="M3695 2781 c-90 -41 -144 -126 -145 -227 0 -99 54 -160 133 -150 51
6 86 30 104 74 36 86 -19 180 -98 169 -22 -3 -39 -2 -39 1 0 21 46 77 85 104
25 18 45 35 45 40 0 14 -43 8 -85 -11z m-1 -184 c23 -17 31 -93 14 -127 -17
-31 -48 -38 -65 -14 -19 25 -17 119 3 138 19 19 25 20 48 3z"/>
</g>
</svg>
