<svg xmlns="http://www.w3.org/2000/svg" id="Layer_2" data-name="Layer 2" viewBox="0 0 1276.32 421.7"><defs><style>      .cls-1 {        fill: none;        stroke: #fff;        stroke-linecap: round;        stroke-linejoin: round;        stroke-width: .71px;      }      .cls-2 {        fill: #fff;      }    </style></defs><g id="Layer_2-2" data-name="Layer 2"><g id="LWPOLYLINE"><g><g><path class="cls-2" d="m1275.96,303.39v117.83h-51.07v-90.56h-133.89v90.56h-51.07V104.93c90.52,50.67,170.59,117.99,236.02,198.47Zm-184.96-23.84h94.96c-29.41-29.69-61.15-56.92-94.96-81.4v81.4Z"></path><rect class="cls-2" x="907.26" y="144.42" width="66.92" height="276.81"></rect><path class="cls-2" d="m974.18,71.93v43.81h-66.92V45.43c22.71,7.87,45.02,16.7,66.92,26.5Z"></path><path class="cls-2" d="m841.23,279.55v141.67h-238.93V1.17c80.44-3.59,160.91,4.64,238.93,24.49v52.84c-61.28-16.7-124.33-25.74-187.82-26.91v318.36h135.9v-39.29h-84.79v-51.11h136.71Z"></path><path class="cls-2" d="m539.97,6.34v414.89h-51.11v-90.56h-135.74l-.2,90.56h-51.11l.81-348.81c75.35-33.84,155.39-56.11,237.36-66.08Zm-51.11,273.22V66.2c-46.19,9.2-91.45,22.59-135.22,40.06l-.4,173.3h135.62Z"></path><path class="cls-2" d="m236.74,105.61v315.61h-51.07v-90.56H52.63v90.56H1.52l-1.17-115.89c16.38-20.29,33.72-39.73,51.96-58.37v32.59h132.35v-142.07c16.94-11.25,34.33-21.9,52.08-31.87Z"></path></g><g><path class="cls-1" d="m236.74,105.61c-17.75,9.96-35.14,20.61-52.08,31.87v142.07H52.31v-32.59c-18.23,18.64-35.58,38.08-51.96,58.37l1.17,115.89h51.11v-90.56h133.04v90.56h51.07V105.41"></path><line class="cls-1" x1="352.92" y1="421.23" x2="352.92" y2="421.35"></line><path class="cls-1" d="m352.92,421.23h-51.11l.81-348.81c75.35-33.84,155.39-56.11,237.36-66.08v414.89h-51.11v-90.56h-135.74l-.2,90.56Z"></path><path class="cls-1" d="m353.24,279.55l.4-173.3c43.77-17.47,89.03-30.86,135.22-40.06v213.35h-135.62Z"></path><path class="cls-1" d="m653.41,51.6v318.36h135.9v-39.29h-84.79v-51.11h136.71v141.67h-238.93V1.17c80.44-3.59,160.91,4.64,238.93,24.49v52.84c-61.28-16.7-124.33-25.74-187.82-26.91Z"></path><path class="cls-1" d="m907.26,45.43v70.31h66.92v-43.81c-21.9-9.8-44.21-18.64-66.92-26.5Z"></path><path class="cls-1" d="m1091.01,279.55v-81.4c33.8,24.49,65.55,51.71,94.96,81.4h-94.96Z"></path><path class="cls-1" d="m1039.94,104.93v316.3h51.07v-90.56h133.89v90.56h51.07v-117.83c-65.43-80.48-145.5-147.8-236.02-198.47Z"></path><rect class="cls-1" x="907.26" y="144.42" width="66.92" height="276.81"></rect></g></g></g></g></svg>